# xmcd
#
# Track frame offsets: 
#        150
#        15137
#        28347
#        44867
#        64620
#        80752
#        97212
#        116804
#        134544
#        147686
#        166321
#        180962
#        197554
#        210999
#        224236
#        239784
#        254816
#        273586
#        289661
#        305961
#        321638
#        335033
#        347941
#
# Disc length: 4796 seconds
#
# Revision: 0
# Processed by: cddbd v1.5.2PL0 Copyright (c) Steve Scherf et al.
# Submitted via: ExactAudioCopy v0.99pb5
#
DISCID=8f12ba17
DTITLE=Brooks and Dunn - The Collection [Disc 1]
DYEAR=2014
DGENRE=Country
TTITLE0=Cowboy Town
TTITLE1=Goin' Under Gettin' Over You
TTITLE2=Mexican Minutes
TTITLE3=Indian Summer
TTITLE4=Still In Love With You
TTITLE5=I Can't Put Out This Fire
TTITLE6=Neon Moon
TTITLE7=She Used To Be Mine
TTITLE8=I've Got A Lot To Learn
TTITLE9=I Can't Get Over You
TTITLE10=He's Got You
TTITLE11=Cowgirls Don't Cry
TTITLE12=Brand New Man
TTITLE13=My Next Broken Heart
TTITLE14=She's Not the Cheatin' Kind
TTITLE15=I'll Never Forgive My Heart
TTITLE16=I Am That Man
TTITLE17=A Man This Lonely
TTITLE18=That Ain't No Way To Go
TTITLE19=Every River
TTITLE20=Hard Workin' Man
TTITLE21=Cheating On The Blues
TTITLE22=Beer Thirty
EXTD=
EXTT0=
EXTT1=
EXTT2=
EXTT3=
EXTT4=
EXTT5=
EXTT6=
EXTT7=
EXTT8=
EXTT9=
EXTT10=
EXTT11=
EXTT12=
EXTT13=
EXTT14=
EXTT15=
EXTT16=
EXTT17=
EXTT18=
EXTT19=
EXTT20=
EXTT21=
EXTT22=
PLAYORDER=
